<?xml version="1.0" encoding="utf-8"?>
<!-- Generator: Adobe Illustrator 21.1.0, SVG Export Plug-In . SVG Version: 6.00 Build 0)  -->
<svg version="1.1" id="Layer_1" xmlns="http://www.w3.org/2000/svg" xmlns:xlink="http://www.w3.org/1999/xlink" x="0px" y="0px"
	 viewBox="0 0 2854.6 445.5" style="enable-background:new 0 0 2854.6 445.5;" xml:space="preserve">
<style type="text/css">
	
		.st0{fill-rule:evenodd;clip-rule:evenodd;fill:none;stroke:#00D664;stroke-width:13.3638;stroke-miterlimit:10;stroke-dasharray:14.8487;}
	
		.st1{fill-rule:evenodd;clip-rule:evenodd;fill:none;stroke:#00D664;stroke-width:7.5071;stroke-miterlimit:10;stroke-dasharray:8.3412;}
</style>
<path id="XMLID_3_" class="st0" d="M2854.4,105.6c-78.3-2.2-159,63.2-194.5,127.1c-163.3,294-389,258.4-588.2-10.8
	c-87.6-118.4-240.1-187.9-385.2-162.6c-97.7,17.1-184.4,70.6-275.2,110.4c-90.8,39.8-196.6,66-287.7,26.8
	c-69-29.7-118-92-180.6-133.6C846.2-1.5,715.6-11.4,610.1,37.6c-83.2,38.7-148,117.1-237.3,137.9C176.1,221.4,42.7,111.3,3.4,88"/>
<path id="XMLID_2_" class="st1" d="M2747.9-1134.8c-44-1.2-89.3,35.5-109.3,71.4c-91.8,165.2-218.5,145.1-330.4-6.1
	c-49.2-66.5-134.9-105.5-216.4-91.3c-54.9,9.6-103.6,39.6-154.6,62c-51,22.4-110.5,37.1-161.6,15.1c-38.8-16.7-66.3-51.7-101.4-75
	c-54.4-36.2-127.8-41.8-187-14.2c-46.8,21.7-83.1,65.8-133.3,77.5c-110.5,25.8-185.4-36.1-207.5-49.2"/>
</svg>
