<?xml version="1.0" encoding="utf-8"?>
<!-- Generator: Adobe Illustrator 21.1.0, SVG Export Plug-In . SVG Version: 6.00 Build 0)  -->
<svg version="1.1" id="Layer_1" xmlns="http://www.w3.org/2000/svg" xmlns:xlink="http://www.w3.org/1999/xlink" x="0px" y="0px"
	 viewBox="0 0 2853.6 282.2" style="enable-background:new 0 0 2853.6 282.2;" xml:space="preserve">
<style type="text/css">
	
		.st0{fill-rule:evenodd;clip-rule:evenodd;fill:none;stroke:#00D664;stroke-width:7.5071;stroke-miterlimit:10;stroke-dasharray:8.3412;}
</style>
<path id="XMLID_1_" class="st0" d="M2853.5,91.3c-44-1.2-89.3,35.5-109.3,71.4c-91.8,165.2-218.5,145.1-330.4-6.1
	c-49.2-66.5-134.9-105.5-216.4-91.3c-54.9,9.6-103.6,39.6-154.6,62c-51,22.4-110.5,37.1-161.6,15.1c-38.8-16.7-66.3-51.7-101.4-75
	c-54.4-36.2-126.5-38.8-187-14.2c-22.3,9.1-43.7,21.1-64.7,40.1c-16.4,14.8-30.3,32.1-41.7,51c-91,150.4-213.8,127.3-322.6-19.6
	c-49.2-66.5-134.9-105.5-216.4-91.3c-54.9,9.6-103.6,39.6-154.6,62c-51,22.4-110.5,37.1-161.6,15.1c-38.8-16.7-66.3-51.7-101.4-75
	C475.4-0.9,402-6.4,342.7,21.1C296,42.9,259.6,86.9,209.4,98.6C98.9,124.4,24,62.5,1.9,49.4"/>
<path id="XMLID_3_" class="st0" d="M1499.5-1164.7c-44-1.2-89.3,35.5-109.3,71.4c-91.8,165.2-218.5,145.1-330.4-6.1
	c-49.2-66.5-134.9-105.5-216.4-91.3c-54.9,9.6-103.6,39.6-154.6,62c-51,22.4-110.5,37.1-161.6,15.1c-38.8-16.7-66.3-51.7-101.4-75
	c-54.4-36.2-127.8-41.8-187-14.2c-46.8,21.7-83.1,65.8-133.3,77.5c-110.5,25.8-185.4-36.1-207.5-49.2"/>
<path id="XMLID_2_" class="st0" d="M2749.5-1132.7c-44-1.2-89.3,35.5-109.3,71.4c-91.8,165.2-218.5,145.1-330.4-6.1
	c-49.2-66.5-134.9-105.5-216.4-91.3c-54.9,9.6-103.6,39.6-154.6,62c-51,22.4-110.5,37.1-161.6,15.1c-38.8-16.7-66.3-51.7-101.4-75
	c-54.4-36.2-127.8-41.8-187-14.2c-46.8,21.7-83.1,65.8-133.3,77.5c-110.5,25.8-185.4-36.1-207.5-49.2"/>
</svg>
